<svg xmlns="http://www.w3.org/2000/svg" viewBox="0 0 60 40" height="8px" fill="currentColor"><path d="M0,38.5V32.21a1.5,1.5,0,0,1,1.5-1.5H3.65a1.51,1.51,0,0,0,1.5-1.51V10.84a1.5,1.5,0,0,0-1.5-1.5H1.54A1.51,1.51,0,0,1,0,7.83V1.5A1.5,1.5,0,0,1,1.54,0h57A1.5,1.5,0,0,1,60,1.5V7.79a1.5,1.5,0,0,1-1.51,1.5H56.38a1.52,1.52,0,0,0-1.51,1.51V29.16a1.51,1.51,0,0,0,1.51,1.5h2.11A1.52,1.52,0,0,1,60,32.17V38.5A1.51,1.51,0,0,1,58.49,40h-57A1.5,1.5,0,0,1,0,38.5Zm52.25-6.65V8.13a1.5,1.5,0,0,1,1.51-1.51h2.12a1.51,1.51,0,0,0,1.51-1.5V4.18a1.52,1.52,0,0,0-1.51-1.51H4.15A1.52,1.52,0,0,0,2.64,4.18v1A1.52,1.52,0,0,0,4.15,6.67H6.26a1.51,1.51,0,0,1,1.51,1.5v23.7a1.51,1.51,0,0,1-1.51,1.51H4.13a1.5,1.5,0,0,0-1.5,1.5v.94a1.51,1.51,0,0,0,1.5,1.51H55.88a1.51,1.51,0,0,0,1.5-1.51v-1a1.5,1.5,0,0,0-1.5-1.5H53.77A1.51,1.51,0,0,1,52.26,31.85Z"/><path d="M22.42,6.67H37.61a1.5,1.5,0,0,1,1.51,1.5V31.81a1.5,1.5,0,0,1-1.51,1.5H22.42a1.5,1.5,0,0,1-1.5-1.5V8.17A1.5,1.5,0,0,1,22.42,6.67ZM36.5,29.16V10.87A1.52,1.52,0,0,0,35,9.36H25a1.51,1.51,0,0,0-1.5,1.51V29.16a1.5,1.5,0,0,0,1.5,1.5H35A1.51,1.51,0,0,0,36.5,29.16Z"/></svg>
